<svg xmlns="http://www.w3.org/2000/svg" viewBox="0 0 800 520" role="img" aria-labelledby="t d"><title id="t">Regional disparities</title><desc id="d">Two communities with different access to services connected by a bridge.</desc><rect width="800" height="520" rx="36" fill="#fbfdff"/><circle cx="640" cy="90" r="46" fill="#ffd35a"/><path d="M0 320c110-74 207-73 311-4 91 61 178 69 272 17 77-43 146-45 217-4v191H0Z" fill="#dff2e7"/><path d="M0 365c136-55 254-42 353 12 105 57 218 58 447-2v145H0Z" fill="#d7ecfb"/><g><rect x="92" y="215" width="126" height="112" rx="14" fill="#f4bb43"/><path d="M74 222l81-66 83 66Z" fill="#d96a54"/><rect x="137" y="267" width="36" height="60" fill="#fff0d1"/><rect x="98" y="245" width="28" height="28" fill="#e7f5ff"/><rect x="184" y="245" width="28" height="28" fill="#e7f5ff"/></g><g><rect x="550" y="190" width="160" height="140" rx="16" fill="#6fb6e8"/><rect x="588" y="152" width="84" height="58" rx="10" fill="#4a82c2"/><path d="M621 168v28M607 182h28" stroke="#fff" stroke-width="10" stroke-linecap="round"/><rect x="575" y="240" width="38" height="90" fill="#e7f5ff"/><rect x="635" y="230" width="44" height="38" fill="#e7f5ff"/></g><path d="M225 344c112-61 238-64 330 0" fill="none" stroke="#6d493f" stroke-width="18"/><path d="M274 365h230" stroke="#6d493f" stroke-width="14" stroke-dasharray="22 18"/><g fill="#173c63"><circle cx="130" cy="378" r="20"/><path d="M105 458c7-47 19-65 25-65s20 18 29 65Z"/><circle cx="660" cy="378" r="20"/><path d="M635 458c7-47 19-65 25-65s20 18 29 65Z"/></g><path d="M160 386h84" stroke="#f49a76" stroke-width="10" stroke-linecap="round"/><path d="M557 386h78" stroke="#f49a76" stroke-width="10" stroke-linecap="round"/></svg>